<?xml version="1.0" encoding="UTF-8"?>
<!DOCTYPE svg PUBLIC "-//W3C//DTD SVG 1.1//EN" "http://www.w3.org/Graphics/SVG/1.1/DTD/svg11.dtd">
<!-- Creator: CorelDRAW 2019 (64 Bit) -->
<svg xmlns="http://www.w3.org/2000/svg" xml:space="preserve" width="80px" height="80px" version="1.1" style="shape-rendering:geometricPrecision; text-rendering:geometricPrecision; image-rendering:optimizeQuality; fill-rule:evenodd; clip-rule:evenodd"
viewBox="0 0 1.46 1.46"
 xmlns:xlink="http://www.w3.org/1999/xlink">
 <defs>
  <style type="text/css">
   <![CDATA[
    .fil0 {fill:#ED3237}
   ]]>
  </style>
 </defs>
 <g id="Camada_x0020_1">
  <metadata id="CorelCorpID_0Corel-Layer"/>
  <path class="fil0" d="M0 0l1.46 0 0 1.46 -1.46 -1.46zm0.86 0.34c0.01,0 0.02,0 0.03,0 0.01,0 0.01,0.01 0.02,0.01 0.01,0 0.01,0.01 0.02,0.02 0.01,0 0.01,0.01 0.01,0.02 0.01,0 0.01,0.01 0.01,0.02 0,0.01 0.01,0.02 0.01,0.03 0,0.01 -0.01,0.03 -0.01,0.04 0,0 -0.01,0.01 -0.01,0.02 0,0 0,0.01 -0.01,0.01 0,0.01 -0.01,0.01 -0.01,0.01 -0.01,0.01 -0.01,0.01 -0.02,0.01 -0.01,0 -0.01,0.01 -0.02,0.01 -0.01,0 -0.01,0 -0.02,0 -0.01,0 -0.01,0 -0.02,0 -0.01,0 -0.01,-0.01 -0.02,-0.01 -0.01,0 -0.01,0 -0.02,-0.01 0,0 -0.01,-0.01 -0.01,-0.01 -0.01,0 -0.01,-0.01 -0.01,-0.01 0,-0.01 -0.01,-0.02 -0.01,-0.02 0,-0.01 0,-0.01 0,-0.02 0,-0.01 -0.01,-0.02 -0.01,-0.02 0,-0.01 0.01,-0.02 0.01,-0.02 0,-0.01 0,-0.02 0,-0.02 0,-0.01 0.01,-0.01 0.01,-0.02 0,-0.01 0.01,-0.01 0.01,-0.01 0,-0.01 0.01,-0.01 0.01,-0.02 0.01,0 0.01,0 0.02,-0.01 0.01,0 0.01,0 0.02,0 0.01,0 0.01,0 0.02,0zm0.05 0.1c0,-0.01 -0.01,-0.01 -0.01,-0.02 0,0 0,-0.01 0,-0.01 0,-0.01 -0.01,-0.01 -0.01,-0.02 0,0 0,0 -0.01,0 0,-0.01 0,-0.01 -0.01,-0.01 0,0 -0.01,0 -0.01,0 0,0 -0.01,0 -0.01,0 0,0 -0.01,0 -0.01,0 0,0 0,0.01 -0.01,0.01 0,0 0,0 0,0 0,0.01 -0.01,0.01 -0.01,0.01 0,0 0,0.01 0,0.01 0,0.01 0,0.01 0,0.01 0,0.01 0,0.01 0,0.02 0,0 0,0.01 0,0.01 0,0.01 0,0.01 0,0.01 0,0.01 0,0.01 0,0.01 0,0.01 0.01,0.01 0.01,0.01 0,0 0,0.01 0,0.01 0.01,0 0.01,0 0.01,0 0,0 0.01,0 0.01,0.01 0,0 0.01,0 0.01,0 0,0 0.01,0 0.01,-0.01 0.01,0 0.01,0 0.01,0 0.01,0 0.01,0 0.01,-0.01 0,0 0.01,0 0.01,-0.01 0,0 0,-0.01 0,-0.01 0,-0.01 0.01,-0.02 0.01,-0.02zm0.18 -0.06l-0.07 0 0 0.04 0.06 0c0,0 0,0 0.01,0 0,0 0,0 0,0 0.01,0 0.01,0.01 0.01,0.01 0,0 0,0 0,0.01 0,0 0,0 0,0 0,0.01 0,0.01 -0.01,0.01 0,0 0,0 0,0.01 -0.01,0 -0.01,0 -0.01,0l-0.06 0 0 0.05c0,0 0,0.01 0,0.01 0,0.01 0,0.01 0,0.01 -0.01,0 -0.01,0.01 -0.01,0.01 -0.01,0 -0.01,0 -0.01,0 -0.01,0 -0.01,0 -0.01,0 0,0 -0.01,-0.01 -0.01,-0.01 0,0 0,0 -0.01,-0.01 0,0 0,-0.01 0,-0.01l0 -0.14c0,0 0,-0.01 0,-0.01 0,0 0,0 0.01,-0.01 0,0 0,0 0,0 0,0 0,-0.01 0.01,-0.01 0,0 0.01,0 0.01,0l0.09 0c0,0 0.01,0 0.01,0 0,0 0,0 0.01,0.01 0,0 0,0 0,0 0,0.01 0,0.01 0,0.01 0,0 0,0.01 0,0.01 0,0 0,0 0,0.01 -0.01,0 -0.01,0 -0.01,0 0,0 -0.01,0 -0.01,0zm0.15 0l-0.06 0 0 0.04 0.05 0c0,0 0.01,0 0.01,0 0,0 0,0 0.01,0 0,0 0,0.01 0,0.01 0,0 0,0 0,0.01 0,0 0,0 0,0 0,0.01 0,0.01 0,0.01 -0.01,0 -0.01,0 -0.01,0.01 0,0 -0.01,0 -0.01,0l-0.05 0 0 0.05c0,0 0,0.01 -0.01,0.01 0,0.01 0,0.01 0,0.01 0,0 -0.01,0.01 -0.01,0.01 0,0 -0.01,0 -0.01,0 0,0 -0.01,0 -0.01,0 0,0 0,-0.01 -0.01,-0.01 0,0 0,0 0,-0.01 0,0 0,-0.01 0,-0.01l0 -0.14c0,0 0,-0.01 0,-0.01 0,0 0,0 0,-0.01 0,0 0,0 0,0 0.01,0 0.01,-0.01 0.01,-0.01 0,0 0.01,0 0.02,0l0.08 0c0.01,0 0.01,0 0.01,0 0,0 0.01,0 0.01,0.01 0,0 0,0 0,0 0.01,0.01 0.01,0.01 0.01,0.01 0,0 0,0.01 -0.01,0.01 0,0 0,0 0,0.01 0,0 -0.01,0 -0.01,0 0,0 0,0 -0.01,0z"/>
 </g>
</svg>
