<svg viewBox="0 0 49 17" fill="none" xmlns="http://www.w3.org/2000/svg">
<path d="M34.8284 6.36509H33.1109V12.1713C33.1109 12.28 33.0164 12.3731 32.9061 12.3731H31.5825C31.4722 12.3731 31.3776 12.28 31.3776 12.1713V6.36509H29.6444C29.5971 6.36509 29.5341 6.34957 29.5026 6.31852C29.471 6.28747 29.4395 6.24089 29.4395 6.1788V5.15417C29.4395 5.1076 29.4553 5.0455 29.5026 5.01445C29.5341 4.9834 29.5971 4.95235 29.6444 4.96788H34.8284C34.9387 4.96788 35.0333 5.0455 35.0333 5.15417V6.1788C35.0333 6.28747 34.9387 6.36509 34.8284 6.36509Z" fill="white"/>
<path d="M40.3434 12.3266C39.6658 12.4197 38.9725 12.4663 38.295 12.4508C36.9871 12.4508 35.8369 12.1247 35.8369 10.3084V7.00161C35.8369 5.18523 37.0029 4.87474 38.3107 4.87474C38.9883 4.85921 39.6658 4.90579 40.3434 4.99894C40.4852 5.01446 40.5482 5.07656 40.5482 5.20076V6.13223C40.5482 6.2409 40.4537 6.33405 40.3434 6.33405H38.2162C37.7435 6.33405 37.5701 6.4893 37.5701 7.01714V7.91756H40.2646C40.3749 7.91756 40.4694 8.01071 40.4694 8.11938V9.06639C40.4694 9.17506 40.3749 9.26821 40.2646 9.26821H37.5701V10.3239C37.5701 10.8362 37.7435 11.007 38.2162 11.007H40.3434C40.4537 11.007 40.5482 11.1001 40.5482 11.2088V12.1403C40.5482 12.2489 40.4852 12.311 40.3434 12.3266Z" fill="white"/>
<path d="M47.9697 12.3731H46.3625C46.2522 12.3887 46.1419 12.3266 46.0947 12.2179L44.6923 10.0444L43.4317 12.1713C43.3687 12.2955 43.2899 12.3731 43.1796 12.3731H41.6827C41.6512 12.3731 41.6039 12.3731 41.5724 12.3421C41.5409 12.311 41.5251 12.28 41.5251 12.2334C41.5251 12.2024 41.5409 12.1868 41.5409 12.1713L43.7311 8.5696L41.5094 5.15418C41.4936 5.13866 41.4936 5.10761 41.4936 5.09208C41.4936 5.01446 41.5724 4.95236 41.6512 4.96789H43.3057C43.416 4.96789 43.4948 5.06103 43.5578 5.15418L44.8499 7.17238L46.1104 5.15418C46.1577 5.04551 46.2522 4.98341 46.3625 4.96789H47.8594C47.9382 4.96789 48.017 5.01446 48.017 5.09208C48.017 5.10761 48.0013 5.13866 48.0013 5.15418L45.7953 8.60065L48.0958 12.1713C48.1116 12.2024 48.1273 12.2334 48.1273 12.2645C48.1116 12.3266 48.0643 12.3731 47.9697 12.3731Z" fill="white"/>
<path d="M27.0129 4.98342C26.9342 4.98342 26.8711 5.02999 26.8554 5.10761L25.39 10.4636C25.3742 10.5723 25.3427 10.6189 25.2482 10.6189C25.1536 10.6189 25.1221 10.5723 25.1063 10.4636L23.6409 5.10761C23.6252 5.02999 23.5622 4.98342 23.4834 4.98342H22.0337C21.9865 4.98342 21.9392 4.99894 21.9077 5.04552C21.8762 5.07657 21.8604 5.12314 21.8762 5.16971C21.8762 5.16971 23.6725 11.3175 23.6882 11.3796C23.9246 12.1092 24.5076 12.4663 25.2482 12.4663C25.9572 12.4973 26.6033 12.0471 26.8081 11.3796C26.8396 11.3019 28.5886 5.16971 28.5886 5.16971C28.6044 5.12314 28.5886 5.07657 28.5571 5.04552C28.5256 5.01447 28.4783 4.98342 28.4311 4.98342H27.0129Z" fill="white"/>
<path d="M18.8193 0H3.73988C3.18838 0 2.68416 0.294968 2.41629 0.745182C2.13266 1.21092 2.11691 1.78533 2.36902 2.25107L3.88169 5.07655H1.13997C0.793321 5.07655 0.462424 5.24732 0.273341 5.54229C0.0842566 5.83726 0.0842565 6.20985 0.241826 6.52034L5.09498 15.5557C5.26831 15.8817 5.61496 16.0835 5.97737 16.0835C6.33978 16.0835 6.68643 15.8817 6.85976 15.5557L8.18335 13.1028L9.83783 16.1922C10.1057 16.689 10.6414 16.9995 11.2087 16.9995C11.7759 16.9995 12.3117 16.689 12.5795 16.1922L20.1429 2.17345C20.395 1.70771 20.3793 1.14882 20.0956 0.714132C19.8435 0.263918 19.3551 0 18.8193 0ZM12.0753 5.91488L8.76636 12.0316C8.65606 12.2489 8.43546 12.3731 8.18335 12.3731C7.93124 12.3731 7.71064 12.2334 7.60034 12.0316L4.33864 5.97698C4.2441 5.79068 4.2441 5.57334 4.3544 5.38704C4.4647 5.20075 4.66954 5.09207 4.87438 5.09207H11.5553C11.7602 5.09207 11.9493 5.18522 12.0438 5.35599C12.1699 5.52676 12.1699 5.74411 12.0753 5.91488Z" fill="white"/>
</svg>
